PathFileType	4	(x/y/z)	S04_P20_T07.trc
DataRate	CameraRate	NumFrames	NumMarkers	Units	OrigDataRate	OrigDataStartFrame	OrigNumFrames
240	240	6	51	mm	240	185	369
Frame#	Time	Sternum			R.Acromium			L.Acromium			Top.Head			R.ASIS			L.ASIS			R.PSIS			L.PSIS			R.Great.Tro			L.Great.Tro			R.Iliac.Crest			L.Iliac.Crest			V.Sacral			R.Thigh.Upper.Post			R.Thigh.Lower.Ant			R.Thigh.Lower.Post			R.Thigh.Upper.Ant			R.Knee.Lat			R.Knee.Med			R.Shank.Upper.Post			R.Shank.Lower.Ant			R.Shank.Lower.Post			R.Shank.Upper.Ant			R.Ankle.Lat			R.Ankle.Med			R.Heel.Upper			R.Heel.Med			R.Heel.Lat			R.Toe.Lat			R.Toe.Med			R.Toe.Tip			L.Thigh.Upper.Post			L.Thigh.Lower.Ant			L.Thigh.Lower.Post			L.Thigh.Upper.Ant			L.Knee.Lat			L.Knee.Med			L.Shank.Upper.Post			L.Shank.Lower.Ant			L.Shank.Lower.Post			L.Shank.Upper.Ant			L.Ankle.Lat			L.Ankle.Med			L.Heel.Upper			L.Heel.Med			L.Heel.Lat			L.Toe.Lat			L.Toe.Med			L.Toe.Tip			Cervical.Spine			Back			
		X1	Y1	Z1	X2	Y2	Z2	X3	Y3	Z3	X4	Y4	Z4	X5	Y5	Z5	X6	Y6	Z6	X7	Y7	Z7	X8	Y8	Z8	X9	Y9	Z9	X10	Y10	Z10	X11	Y11	Z11	X12	Y12	Z12	X13	Y13	Z13	X14	Y14	Z14	X15	Y15	Z15	X16	Y16	Z16	X17	Y17	Z17	X18	Y18	Z18	X19	Y19	Z19	X20	Y20	Z20	X21	Y21	Z21	X22	Y22	Z22	X23	Y23	Z23	X24	Y24	Z24	X25	Y25	Z25	X26	Y26	Z26	X27	Y27	Z27	X28	Y28	Z28	X29	Y29	Z29	X30	Y30	Z30	X31	Y31	Z31	X32	Y32	Z32	X33	Y33	Z33	X34	Y34	Z34	X35	Y35	Z35	X36	Y36	Z36	X37	Y37	Z37	X38	Y38	Z38	X39	Y39	Z39	X40	Y40	Z40	X41	Y41	Z41	X42	Y42	Z42	X43	Y43	Z43	X44	Y44	Z44	X45	Y45	Z45	X46	Y46	Z46	X47	Y47	Z47	X48	Y48	Z48	X49	Y49	Z49	X50	Y50	Z50	X51	Y51	Z51	

185	0.76667	-373.01	1287.2	257.24	-482.96	1512.7	445.64	-523.25	1502.7	98.253	-482.48	1839.6	259.14	-400.67	1005.2	399.42	-413.75	1021.6	150.24	-619.82	1033.5	307.66	-614.24	1036	226.16	-486.27	922.33	463.73	-521.22	929.29	84.531	-487.31	1094.1	443.19	-516.69	1101.5	108.65	-636.66	992.43	268.02	-470.37	661.8	439.77	-392.69	585.66	398.09	-465.67	572.25	421.82	-388.36	693.62	424.57	-437.64	506.59	407.6	-470.26	504.89	277.98	-517.38	280.49	399.76	-455.86	204.23	348.99	-520.35	211.73	381.32	-455.12	272.79	375.77	-513.39	99.638	354.8	-495.08	117.52	266.3	-579.8	71.634	297.69	-569.69	42.201	266.45	-573.86	38.484	331.27	-403.76	39.595	381.03	-366.49	45.421	262.56	-305.5	66.337	310.46	-445.86	694.33	87.465	-334.14	636.02	78.385	-402.42	615.8	95.903	-382.07	712.82	68.522	-344.03	544.76	93.689	-317.5	529.05	221.16	-504.43	445.16	121.29	-496.89	335.61	104.8	-541.85	377.06	125.73	-459.77	402.99	99.197	-601.16	222.01	128.65	-576.07	222.21	218.74	-673.39	236.56	188.98	-677.22	211.46	222.81	-690.91	213.87	162.03	-554.99	106.47	95.345	-504.91	90.146	201.16	-460.73	71.091	143.9	-552.73	1560.2	281.97	-633.5	1302.5	265.73
186	0.77083	-368.01	1287.6	257.1	-477.48	1513.2	445.65	-518.45	1503.1	98.4	-477.12	1839.9	259.19	-396.1	1005.3	399.71	-408.6	1022.2	150.46	-614.87	1034	307.21	-609.19	1036.7	225.75	-482.13	922.51	463.58	-515.62	930.07	84.227	-482.58	1094.4	443.2	-511.58	1102.1	108.59	-631.65	993.02	267.5	-468.14	661.99	439.77	-390.99	585.2	398.27	-464.09	572.37	421.95	-385.87	693.15	424.69	-436.68	506.43	407.7	-469	504.9	278.05	-517.07	280.63	399.74	-455.62	204.2	349.09	-520.19	211.87	381.24	-454.75	272.74	375.9	-513.3	99.71	354.73	-494.98	117.6	266.25	-579.87	71.756	297.63	-569.84	42.233	266.37	-573.84	38.564	331.25	-403.77	39.521	381.11	-366.43	45.308	262.54	-305.47	66.138	310.51	-438.71	695.42	86.95	-326.52	637.86	78.808	-394.84	617.16	95.598	-374.88	714.35	68.655	-336.06	546.3	94.131	-310.08	530.88	221.54	-494.83	443.4	120.86	-485.06	334.02	104.64	-530.95	374.6	125.28	-449.3	402.09	99.065	-587.04	218.22	128.13	-562.54	219.08	218.35	-659.99	231.17	187.98	-663.41	205.99	221.82	-676.78	208.09	160.97	-538	103.8	95.18	-488.28	88.692	201.35	-443.39	70.555	144.41	-547.52	1560.6	282.16	-628.37	1302.9	266.08
187	0.775	-363	1288	256.96	-472.01	1513.7	445.67	-513.62	1503.6	98.538	-471.77	1840.3	259.22	-391.54	1005.3	399.99	-403.44	1022.7	150.68	-609.93	1034.5	306.75	-604.14	1037.2	225.34	-477.99	922.65	463.44	-510.02	930.8	83.923	-477.82	1094.8	443.21	-506.47	1102.7	108.54	-626.64	993.54	266.98	-465.93	662.17	439.76	-389.29	584.74	398.45	-462.51	572.48	422.06	-383.38	692.67	424.8	-435.73	506.26	407.81	-467.74	504.9	278.12	-516.75	280.76	399.7	-455.38	204.16	349.19	-520.03	212	381.14	-454.38	272.68	376.02	-513.22	99.781	354.65	-494.87	117.68	266.19	-579.94	71.878	297.56	-569.97	42.265	266.29	-573.81	38.645	331.22	-403.77	39.444	381.18	-366.37	45.188	262.53	-305.44	65.932	310.55	-431.64	696.46	86.45	-319.01	639.6	79.235	-387.37	618.45	95.299	-367.76	715.8	68.794	-328.21	547.74	94.561	-302.79	532.61	221.91	-485.25	441.48	120.35	-473.18	332.31	104.48	-520.02	371.99	124.77	-438.82	401.06	98.911	-572.77	214.32	127.6	-548.89	215.86	217.96	-646.42	225.64	186.96	-649.44	200.41	220.82	-662.47	202.18	159.91	-520.84	101.08	95.058	-471.51	87.243	201.59	-425.93	70.043	144.98	-542.31	1560.9	282.34	-623.23	1303.2	266.41
188	0.77917	-357.97	1288.3	256.82	-466.52	1514.1	445.69	-508.78	1503.9	98.667	-466.44	1840.5	259.24	-386.97	1005.3	400.26	-398.28	1023.2	150.89	-604.98	1034.9	306.28	-599.09	1037.7	224.92	-473.85	922.75	463.28	-504.42	931.46	83.62	-473.04	1095	443.2	-501.33	1103.1	108.48	-621.63	994	266.45	-463.72	662.33	439.73	-387.6	584.26	398.63	-460.93	572.57	422.17	-380.91	692.17	424.91	-434.77	506.09	407.91	-466.47	504.9	278.17	-516.44	280.89	399.67	-455.14	204.12	349.28	-519.87	212.13	381.04	-454.01	272.62	376.15	-513.13	99.852	354.57	-494.76	117.75	266.12	-580.02	72	297.48	-570.08	42.298	266.22	-573.78	38.726	331.19	-403.77	39.366	381.25	-366.32	45.064	262.51	-305.4	65.719	310.59	-424.64	697.44	85.97	-311.61	641.24	79.664	-380.01	619.67	95.009	-360.73	717.16	68.94	-320.48	549.1	94.978	-295.64	534.24	222.26	-475.68	439.42	119.76	-461.26	330.49	104.32	-509.05	369.25	124.21	-428.34	399.92	98.738	-558.35	210.34	127.07	-535.12	212.56	217.57	-632.69	219.98	185.93	-635.29	194.72	219.81	-647.95	196.14	158.84	-503.52	98.348	94.975	-454.6	85.81	201.88	-408.34	69.569	145.59	-537.08	1561.2	282.51	-618.08	1303.6	266.73
189	0.78333	-352.92	1288.6	256.68	-461.03	1514.4	445.71	-503.93	1504.2	98.786	-461.12	1840.7	259.24	-382.4	1005.3	400.52	-393.1	1023.6	151.1	-600.04	1035.2	305.81	-594.04	1038.2	224.5	-469.71	922.81	463.13	-498.82	932.05	83.318	-468.23	1095.2	443.19	-496.18	1103.5	108.42	-616.62	994.39	265.91	-461.5	662.47	439.7	-385.9	583.79	398.8	-459.35	572.66	422.27	-378.43	691.67	425.02	-433.8	505.91	408.01	-465.19	504.89	278.21	-516.12	281.02	399.62	-454.89	204.07	349.38	-519.71	212.26	380.92	-453.64	272.56	376.27	-513.04	99.922	354.48	-494.65	117.81	266.04	-580.1	72.12	297.4	-570.17	42.33	266.15	-573.75	38.809	331.16	-403.77	39.286	381.32	-366.26	44.933	262.49	-305.36	65.499	310.63	-417.74	698.36	85.515	-304.33	642.77	80.094	-372.76	620.8	94.731	-353.79	718.43	69.093	-312.87	550.35	95.38	-288.63	535.75	222.58	-466.12	437.21	119.09	-449.3	328.58	104.17	-498.03	366.38	123.6	-417.85	398.66	98.546	-543.79	206.28	126.55	-521.24	209.19	217.17	-618.8	214.22	184.9	-620.96	188.95	218.81	-633.25	190.01	157.77	-486.06	95.608	94.924	-437.56	84.401	202.21	-390.65	69.141	146.24	-531.84	1561.5	282.67	-612.94	1303.8	267.05
190	0.7875	-347.86	1288.8	256.54	-455.54	1514.6	445.72	-499.06	1504.4	98.897	-455.81	1840.9	259.24	-377.83	1005.1	400.77	-387.92	1023.9	151.31	-595.1	1035.5	305.34	-588.99	1038.5	224.08	-465.56	922.82	462.97	-493.23	932.57	83.018	-463.42	1095.3	443.16	-491.02	1103.9	108.36	-611.6	994.71	265.37	-459.28	662.6	439.65	-384.2	583.3	398.96	-457.75	572.74	422.36	-375.95	691.15	425.11	-432.82	505.73	408.12	-463.89	504.87	278.24	-515.8	281.15	399.56	-454.64	204.02	349.47	-519.54	212.39	380.8	-453.26	272.48	376.39	-512.95	99.992	354.38	-494.53	117.87	265.96	-580.16	72.236	297.32	-570.22	42.363	266.09	-573.72	38.893	331.13	-403.77	39.205	381.38	-366.21	44.796	262.46	-305.33	65.272	310.67	-410.92	699.22	85.088	-297.17	644.2	80.522	-365.64	621.86	94.467	-346.94	719.61	69.254	-305.39	551.49	95.766	-281.76	537.15	222.89	-456.56	434.86	118.37	-437.31	326.59	104.01	-486.98	363.38	122.95	-407.37	397.31	98.338	-529.1	202.17	126.02	-507.22	205.75	216.78	-604.74	208.38	183.86	-606.46	183.1	217.8	-618.35	183.8	156.7	-468.47	92.88	94.899	-420.4	83.026	202.56	-372.87	68.771	146.92	-526.59	1561.7	282.83	-607.79	1304	267.36
